<svg xmlns="http://www.w3.org/2000/svg" xmlns:xlink="http://www.w3.org/1999/xlink" width="500" zoomAndPan="magnify" viewBox="0 0 375 374.999991" height="500" preserveAspectRatio="xMidYMid meet" version="1.2"><defs><clipPath id="4532628554"><path d="M 159 219 L 278 219 L 278 361 L 159 361 Z M 159 219 "/></clipPath><clipPath id="ea54093928"><path d="M -43.699219 71.871094 L 315.042969 -37.351562 L 418.800781 303.453125 L 60.0625 412.675781 Z M -43.699219 71.871094 "/></clipPath><clipPath id="72e4ee827d"><path d="M -43.699219 71.871094 L 315.042969 -37.351562 L 418.800781 303.453125 L 60.0625 412.675781 Z M -43.699219 71.871094 "/></clipPath><clipPath id="139557cc80"><path d="M -43.699219 71.871094 L 315.042969 -37.351562 L 418.800781 303.453125 L 60.0625 412.675781 Z M -43.699219 71.871094 "/></clipPath><clipPath id="4a1b0cd792"><path d="M 32 186 L 168 186 L 168 312 L 32 312 Z M 32 186 "/></clipPath><clipPath id="b3027696e0"><path d="M -43.699219 71.871094 L 315.042969 -37.351562 L 418.800781 303.453125 L 60.0625 412.675781 Z M -43.699219 71.871094 "/></clipPath><clipPath id="57caeb5170"><path d="M -43.699219 71.871094 L 315.042969 -37.351562 L 418.800781 303.453125 L 60.0625 412.675781 Z M -43.699219 71.871094 "/></clipPath><clipPath id="a103676467"><path d="M -43.699219 71.871094 L 315.042969 -37.351562 L 418.800781 303.453125 L 60.0625 412.675781 Z M -43.699219 71.871094 "/></clipPath><clipPath id="db777f30c4"><path d="M 35 60 L 170 60 L 170 187 L 35 187 Z M 35 60 "/></clipPath><clipPath id="4fb5361fad"><path d="M -43.699219 71.871094 L 315.042969 -37.351562 L 418.800781 303.453125 L 60.0625 412.675781 Z M -43.699219 71.871094 "/></clipPath><clipPath id="736f991b69"><path d="M -43.699219 71.871094 L 315.042969 -37.351562 L 418.800781 303.453125 L 60.0625 412.675781 Z M -43.699219 71.871094 "/></clipPath><clipPath id="3e69a288be"><path d="M -43.699219 71.871094 L 315.042969 -37.351562 L 418.800781 303.453125 L 60.0625 412.675781 Z M -43.699219 71.871094 "/></clipPath><clipPath id="d2779b47bb"><path d="M 162 16 L 282 16 L 282 157 L 162 157 Z M 162 16 "/></clipPath><clipPath id="163a9db916"><path d="M -43.699219 71.871094 L 315.042969 -37.351562 L 418.800781 303.453125 L 60.0625 412.675781 Z M -43.699219 71.871094 "/></clipPath><clipPath id="b764ab1747"><path d="M -43.699219 71.871094 L 315.042969 -37.351562 L 418.800781 303.453125 L 60.0625 412.675781 Z M -43.699219 71.871094 "/></clipPath><clipPath id="d282bdd506"><path d="M -43.699219 71.871094 L 315.042969 -37.351562 L 418.800781 303.453125 L 60.0625 412.675781 Z M -43.699219 71.871094 "/></clipPath><clipPath id="e5d815bf9c"><path d="M 223 131 L 366 131 L 366 248 L 223 248 Z M 223 131 "/></clipPath><clipPath id="88710aa351"><path d="M -43.699219 71.871094 L 315.042969 -37.351562 L 418.800781 303.453125 L 60.0625 412.675781 Z M -43.699219 71.871094 "/></clipPath><clipPath id="6943df00b3"><path d="M -43.699219 71.871094 L 315.042969 -37.351562 L 418.800781 303.453125 L 60.0625 412.675781 Z M -43.699219 71.871094 "/></clipPath><clipPath id="8d341ab541"><path d="M -43.699219 71.871094 L 315.042969 -37.351562 L 418.800781 303.453125 L 60.0625 412.675781 Z M -43.699219 71.871094 "/></clipPath><clipPath id="177e6c1df6"><path d="M 104 112 L 273 112 L 273 276 L 104 276 Z M 104 112 "/></clipPath><clipPath id="3fa8e022c8"><path d="M -43.699219 71.871094 L 315.042969 -37.351562 L 418.800781 303.453125 L 60.0625 412.675781 Z M -43.699219 71.871094 "/></clipPath><clipPath id="474f988fcd"><path d="M -43.699219 71.871094 L 315.042969 -37.351562 L 418.800781 303.453125 L 60.0625 412.675781 Z M -43.699219 71.871094 "/></clipPath><clipPath id="41c1805169"><path d="M -43.699219 71.871094 L 315.042969 -37.351562 L 418.800781 303.453125 L 60.0625 412.675781 Z M -43.699219 71.871094 "/></clipPath></defs><g id="c2c3d1eb92"><g clip-rule="nonzero" clip-path="url(#4532628554)"><g clip-rule="nonzero" clip-path="url(#ea54093928)"><g clip-rule="nonzero" clip-path="url(#72e4ee827d)"><g clip-rule="nonzero" clip-path="url(#139557cc80)"><path style=" stroke:none;fill-rule:nonzero;fill:#000000;fill-opacity:1;" d="M 274.15625 272.972656 C 274.496094 274.089844 274.8125 275.210938 275.109375 276.335938 C 275.402344 277.464844 275.675781 278.597656 275.925781 279.734375 C 276.171875 280.871094 276.398438 282.011719 276.601562 283.152344 C 276.804688 284.296875 276.984375 285.441406 277.136719 286.589844 C 277.292969 287.738281 277.425781 288.886719 277.535156 290.035156 C 277.644531 291.183594 277.730469 292.332031 277.789062 293.480469 C 277.851562 294.625 277.890625 295.773438 277.902344 296.914062 C 277.917969 298.058594 277.90625 299.195312 277.871094 300.332031 C 277.839844 301.46875 277.78125 302.601562 277.699219 303.726562 C 277.617188 304.851562 277.511719 305.972656 277.382812 307.085938 C 277.253906 308.199219 277.101562 309.304688 276.925781 310.40625 C 276.753906 311.503906 276.554688 312.59375 276.332031 313.671875 C 276.109375 314.753906 275.863281 315.824219 275.59375 316.886719 C 275.328125 317.945312 275.035156 318.992188 274.722656 320.03125 C 274.410156 321.070312 274.070312 322.09375 273.714844 323.105469 C 273.355469 324.117188 272.976562 325.113281 272.574219 326.097656 C 272.171875 327.082031 271.746094 328.050781 271.304688 329.003906 C 270.859375 329.957031 270.390625 330.894531 269.90625 331.816406 C 269.417969 332.738281 268.910156 333.640625 268.386719 334.527344 C 267.859375 335.414062 267.3125 336.28125 266.746094 337.132812 C 266.179688 337.980469 265.59375 338.8125 264.988281 339.621094 C 264.382812 340.433594 263.761719 341.222656 263.121094 341.992188 C 262.480469 342.761719 261.820312 343.507812 261.144531 344.234375 C 260.46875 344.960938 259.777344 345.667969 259.066406 346.347656 C 258.359375 347.03125 257.632812 347.691406 256.894531 348.324219 C 256.152344 348.960938 255.398438 349.574219 254.625 350.164062 C 253.855469 350.75 253.070312 351.3125 252.273438 351.851562 C 251.476562 352.390625 250.664062 352.90625 249.839844 353.394531 C 249.015625 353.882812 248.179688 354.347656 247.328125 354.785156 C 246.480469 355.222656 245.621094 355.632812 244.75 356.015625 C 243.878906 356.402344 243 356.757812 242.109375 357.089844 C 241.21875 357.421875 240.320312 357.722656 239.410156 358 C 238.503906 358.277344 237.589844 358.527344 236.664062 358.746094 C 235.742188 358.96875 234.808594 359.160156 233.875 359.328125 C 232.9375 359.492188 231.992188 359.632812 231.046875 359.742188 C 230.097656 359.851562 229.144531 359.933594 228.1875 359.988281 C 227.230469 360.039062 226.269531 360.066406 225.308594 360.0625 C 224.34375 360.058594 223.378906 360.03125 222.410156 359.96875 C 221.445312 359.910156 220.476562 359.824219 219.503906 359.707031 C 218.535156 359.59375 217.566406 359.449219 216.597656 359.277344 C 215.628906 359.109375 214.660156 358.910156 213.695312 358.683594 C 212.730469 358.457031 211.765625 358.199219 210.804688 357.917969 C 209.84375 357.636719 208.886719 357.328125 207.933594 356.992188 C 206.980469 356.65625 206.03125 356.292969 205.089844 355.902344 C 204.144531 355.515625 203.207031 355.097656 202.273438 354.65625 C 201.34375 354.214844 200.417969 353.746094 199.5 353.253906 C 198.585938 352.757812 197.675781 352.238281 196.773438 351.695312 C 195.875 351.152344 194.980469 350.582031 194.101562 349.992188 C 193.21875 349.398438 192.34375 348.78125 191.484375 348.140625 C 190.621094 347.5 189.773438 346.835938 188.933594 346.148438 C 188.097656 345.464844 187.269531 344.753906 186.457031 344.023438 C 185.640625 343.292969 184.84375 342.539062 184.054688 341.765625 C 183.269531 340.992188 182.496094 340.199219 181.738281 339.386719 C 180.980469 338.570312 180.238281 337.738281 179.511719 336.886719 C 178.78125 336.03125 178.070312 335.160156 177.375 334.269531 C 176.679688 333.382812 176.003906 332.472656 175.339844 331.550781 C 174.679688 330.625 174.035156 329.683594 173.410156 328.726562 C 172.785156 327.769531 172.179688 326.800781 171.589844 325.8125 C 171 324.824219 170.433594 323.824219 169.882812 322.8125 C 169.332031 321.796875 168.800781 320.769531 168.292969 319.730469 C 167.78125 318.691406 167.292969 317.640625 166.824219 316.578125 C 166.355469 315.515625 165.90625 314.441406 165.480469 313.359375 C 165.054688 312.277344 164.648438 311.183594 164.265625 310.085938 C 163.878906 308.984375 163.519531 307.878906 163.179688 306.761719 C 162.839844 305.648438 162.523438 304.527344 162.226562 303.398438 C 161.933594 302.273438 161.664062 301.140625 161.414062 300.003906 C 161.164062 298.867188 160.9375 297.726562 160.738281 296.582031 C 160.535156 295.4375 160.355469 294.292969 160.199219 293.144531 C 160.042969 292 159.910156 290.851562 159.800781 289.703125 C 159.695312 288.554688 159.609375 287.40625 159.546875 286.257812 C 159.484375 285.109375 159.449219 283.964844 159.433594 282.824219 C 159.421875 281.679688 159.429688 280.539062 159.464844 279.402344 C 159.5 278.269531 159.558594 277.136719 159.636719 276.011719 C 159.71875 274.882812 159.824219 273.765625 159.953125 272.652344 C 160.082031 271.539062 160.234375 270.429688 160.410156 269.332031 C 160.585938 268.234375 160.785156 267.144531 161.007812 266.0625 C 161.230469 264.984375 161.472656 263.914062 161.742188 262.851562 C 162.011719 261.792969 162.300781 260.742188 162.617188 259.707031 C 162.929688 258.667969 163.265625 257.644531 163.625 256.632812 C 163.980469 255.621094 164.363281 254.621094 164.765625 253.636719 C 165.167969 252.652344 165.589844 251.683594 166.035156 250.730469 C 166.480469 249.777344 166.945312 248.839844 167.433594 247.917969 C 167.917969 247 168.425781 246.09375 168.953125 245.207031 C 169.480469 244.320312 170.027344 243.453125 170.59375 242.605469 C 171.160156 241.753906 171.746094 240.925781 172.347656 240.117188 C 172.953125 239.304688 173.578125 238.515625 174.21875 237.746094 C 174.859375 236.976562 175.515625 236.226562 176.191406 235.5 C 176.867188 234.773438 177.558594 234.070312 178.269531 233.386719 C 178.980469 232.707031 179.703125 232.046875 180.445312 231.410156 C 181.183594 230.773438 181.941406 230.164062 182.710938 229.574219 C 183.480469 228.988281 184.265625 228.421875 185.0625 227.882812 C 185.863281 227.34375 186.675781 226.832031 187.5 226.34375 C 188.324219 225.851562 189.160156 225.390625 190.007812 224.953125 C 190.855469 224.515625 191.714844 224.105469 192.585938 223.722656 C 193.457031 223.335938 194.335938 222.980469 195.226562 222.648438 C 196.117188 222.316406 197.015625 222.011719 197.925781 221.738281 C 198.832031 221.460938 199.75 221.210938 200.671875 220.988281 C 201.597656 220.769531 202.527344 220.574219 203.464844 220.410156 C 204.402344 220.242188 205.34375 220.105469 206.292969 219.996094 C 207.238281 219.886719 208.191406 219.804688 209.148438 219.75 C 210.105469 219.695312 211.066406 219.671875 212.03125 219.671875 C 212.992188 219.675781 213.957031 219.707031 214.925781 219.765625 C 215.894531 219.824219 216.863281 219.914062 217.832031 220.027344 C 218.800781 220.144531 219.769531 220.285156 220.738281 220.457031 C 221.707031 220.628906 222.675781 220.828125 223.640625 221.054688 C 224.609375 221.28125 225.570312 221.535156 226.53125 221.816406 C 227.492188 222.101562 228.449219 222.410156 229.402344 222.746094 C 230.355469 223.082031 231.304688 223.445312 232.25 223.832031 C 233.191406 224.222656 234.128906 224.636719 235.0625 225.082031 C 235.992188 225.523438 236.917969 225.992188 237.835938 226.484375 C 238.753906 226.976562 239.664062 227.496094 240.5625 228.039062 C 241.464844 228.585938 242.355469 229.152344 243.238281 229.746094 C 244.121094 230.339844 244.992188 230.957031 245.851562 231.597656 C 246.714844 232.238281 247.566406 232.898438 248.402344 233.585938 C 249.242188 234.273438 250.066406 234.980469 250.882812 235.714844 C 251.695312 236.445312 252.496094 237.195312 253.28125 237.96875 C 254.070312 238.742188 254.839844 239.535156 255.597656 240.351562 C 256.355469 241.164062 257.101562 242 257.828125 242.851562 C 258.554688 243.707031 259.265625 244.578125 259.960938 245.464844 C 260.65625 246.355469 261.335938 247.261719 261.996094 248.1875 C 262.65625 249.113281 263.300781 250.050781 263.925781 251.007812 C 264.550781 251.964844 265.160156 252.9375 265.746094 253.925781 C 266.335938 254.910156 266.90625 255.910156 267.453125 256.925781 C 268.003906 257.941406 268.535156 258.96875 269.046875 260.007812 C 269.554688 261.046875 270.042969 262.097656 270.515625 263.160156 C 270.984375 264.222656 271.429688 265.296875 271.859375 266.378906 C 272.285156 267.460938 272.691406 268.550781 273.074219 269.652344 C 273.457031 270.75 273.820312 271.859375 274.15625 272.972656 Z M 274.15625 272.972656 "/></g></g></g></g><g clip-rule="nonzero" clip-path="url(#4a1b0cd792)"><g clip-rule="nonzero" clip-path="url(#b3027696e0)"><g clip-rule="nonzero" clip-path="url(#57caeb5170)"><g clip-rule="nonzero" clip-path="url(#a103676467)"><path style=" stroke:none;fill-rule:nonzero;fill:#000000;fill-opacity:1;" d="M 66.863281 201.246094 C 67.820312 200.582031 68.785156 199.933594 69.765625 199.304688 C 70.746094 198.675781 71.738281 198.070312 72.742188 197.480469 C 73.746094 196.894531 74.757812 196.328125 75.78125 195.78125 C 76.808594 195.234375 77.839844 194.710938 78.882812 194.210938 C 79.925781 193.707031 80.976562 193.226562 82.03125 192.769531 C 83.089844 192.3125 84.15625 191.878906 85.226562 191.464844 C 86.296875 191.054688 87.375 190.664062 88.457031 190.296875 C 89.539062 189.933594 90.625 189.589844 91.714844 189.273438 C 92.804688 188.953125 93.898438 188.660156 94.992188 188.390625 C 96.089844 188.121094 97.183594 187.875 98.285156 187.652344 C 99.382812 187.433594 100.480469 187.238281 101.578125 187.066406 C 102.675781 186.894531 103.773438 186.746094 104.871094 186.625 C 105.964844 186.503906 107.058594 186.40625 108.148438 186.335938 C 109.238281 186.261719 110.328125 186.214844 111.410156 186.195312 C 112.492188 186.171875 113.570312 186.175781 114.644531 186.207031 C 115.714844 186.234375 116.78125 186.289062 117.839844 186.367188 C 118.898438 186.449219 119.953125 186.550781 120.996094 186.679688 C 122.039062 186.8125 123.074219 186.964844 124.101562 187.144531 C 125.128906 187.324219 126.144531 187.527344 127.148438 187.753906 C 128.152344 187.984375 129.148438 188.238281 130.128906 188.511719 C 131.113281 188.789062 132.082031 189.09375 133.039062 189.417969 C 133.996094 189.742188 134.941406 190.089844 135.871094 190.464844 C 136.800781 190.835938 137.714844 191.234375 138.613281 191.652344 C 139.511719 192.070312 140.398438 192.511719 141.265625 192.976562 C 142.132812 193.441406 142.984375 193.929688 143.816406 194.4375 C 144.652344 194.945312 145.464844 195.476562 146.265625 196.027344 C 147.0625 196.582031 147.839844 197.152344 148.597656 197.746094 C 149.359375 198.339844 150.097656 198.953125 150.816406 199.589844 C 151.539062 200.222656 152.238281 200.875 152.914062 201.550781 C 153.59375 202.222656 154.25 202.914062 154.882812 203.625 C 155.519531 204.332031 156.128906 205.0625 156.722656 205.804688 C 157.3125 206.550781 157.878906 207.3125 158.421875 208.09375 C 158.964844 208.871094 159.484375 209.667969 159.980469 210.480469 C 160.476562 211.289062 160.949219 212.117188 161.398438 212.957031 C 161.84375 213.796875 162.269531 214.652344 162.664062 215.519531 C 163.0625 216.390625 163.4375 217.269531 163.785156 218.164062 C 164.128906 219.058594 164.453125 219.964844 164.746094 220.882812 C 165.042969 221.800781 165.3125 222.730469 165.554688 223.667969 C 165.800781 224.609375 166.015625 225.554688 166.207031 226.515625 C 166.398438 227.472656 166.5625 228.441406 166.699219 229.414062 C 166.835938 230.390625 166.945312 231.371094 167.027344 232.363281 C 167.113281 233.351562 167.167969 234.347656 167.199219 235.347656 C 167.226562 236.351562 167.230469 237.355469 167.207031 238.367188 C 167.183594 239.378906 167.132812 240.394531 167.054688 241.414062 C 166.976562 242.429688 166.871094 243.453125 166.738281 244.476562 C 166.605469 245.5 166.449219 246.523438 166.261719 247.546875 C 166.078125 248.574219 165.867188 249.597656 165.628906 250.625 C 165.390625 251.648438 165.125 252.671875 164.835938 253.695312 C 164.542969 254.71875 164.226562 255.738281 163.886719 256.757812 C 163.542969 257.773438 163.175781 258.789062 162.785156 259.796875 C 162.390625 260.808594 161.972656 261.8125 161.53125 262.8125 C 161.085938 263.8125 160.621094 264.804688 160.128906 265.792969 C 159.636719 266.78125 159.121094 267.761719 158.582031 268.734375 C 158.042969 269.707031 157.480469 270.671875 156.894531 271.625 C 156.308594 272.582031 155.703125 273.527344 155.070312 274.464844 C 154.441406 275.402344 153.789062 276.324219 153.117188 277.242188 C 152.441406 278.15625 151.746094 279.058594 151.03125 279.949219 C 150.316406 280.839844 149.582031 281.714844 148.824219 282.582031 C 148.070312 283.445312 147.292969 284.296875 146.5 285.132812 C 145.707031 285.96875 144.894531 286.789062 144.066406 287.597656 C 143.234375 288.402344 142.386719 289.191406 141.523438 289.96875 C 140.660156 290.742188 139.777344 291.5 138.882812 292.238281 C 137.984375 292.980469 137.074219 293.703125 136.148438 294.40625 C 135.21875 295.109375 134.277344 295.796875 133.324219 296.464844 C 132.371094 297.128906 131.402344 297.777344 130.421875 298.40625 C 129.441406 299.035156 128.449219 299.640625 127.449219 300.230469 C 126.445312 300.816406 125.429688 301.382812 124.40625 301.929688 C 123.382812 302.476562 122.347656 303 121.308594 303.5 C 120.265625 304.003906 119.214844 304.484375 118.15625 304.941406 C 117.097656 305.398438 116.035156 305.832031 114.960938 306.246094 C 113.890625 306.660156 112.8125 307.046875 111.730469 307.414062 C 110.648438 307.777344 109.5625 308.121094 108.472656 308.4375 C 107.382812 308.757812 106.292969 309.050781 105.195312 309.320312 C 104.101562 309.589844 103.003906 309.835938 101.90625 310.058594 C 100.808594 310.277344 99.710938 310.472656 98.609375 310.644531 C 97.511719 310.816406 96.414062 310.964844 95.320312 311.085938 C 94.222656 311.207031 93.128906 311.304688 92.039062 311.375 C 90.949219 311.449219 89.863281 311.496094 88.78125 311.515625 C 87.695312 311.539062 86.617188 311.535156 85.546875 311.503906 C 84.472656 311.476562 83.40625 311.421875 82.347656 311.34375 C 81.289062 311.261719 80.238281 311.160156 79.191406 311.03125 C 78.148438 310.902344 77.113281 310.746094 76.089844 310.566406 C 75.0625 310.386719 74.046875 310.183594 73.042969 309.957031 C 72.035156 309.726562 71.042969 309.476562 70.058594 309.199219 C 69.078125 308.921875 68.105469 308.617188 67.148438 308.292969 C 66.191406 307.96875 65.25 307.621094 64.320312 307.246094 C 63.390625 306.875 62.476562 306.476562 61.574219 306.058594 C 60.675781 305.640625 59.792969 305.199219 58.925781 304.734375 C 58.054688 304.269531 57.207031 303.78125 56.371094 303.273438 C 55.539062 302.765625 54.722656 302.234375 53.925781 301.683594 C 53.128906 301.128906 52.347656 300.558594 51.589844 299.964844 C 50.832031 299.371094 50.089844 298.757812 49.371094 298.121094 C 48.652344 297.488281 47.953125 296.835938 47.273438 296.160156 C 46.597656 295.488281 45.941406 294.796875 45.304688 294.085938 C 44.671875 293.378906 44.058594 292.648438 43.46875 291.90625 C 42.878906 291.160156 42.3125 290.398438 41.769531 289.617188 C 41.222656 288.839844 40.703125 288.042969 40.207031 287.234375 C 39.710938 286.421875 39.238281 285.597656 38.792969 284.753906 C 38.34375 283.914062 37.921875 283.058594 37.523438 282.191406 C 37.125 281.324219 36.753906 280.441406 36.40625 279.546875 C 36.058594 278.652344 35.738281 277.746094 35.441406 276.828125 C 35.144531 275.910156 34.875 274.980469 34.632812 274.042969 C 34.390625 273.101562 34.171875 272.15625 33.980469 271.195312 C 33.792969 270.238281 33.628906 269.269531 33.492188 268.296875 C 33.355469 267.320312 33.242188 266.339844 33.160156 265.347656 C 33.078125 264.359375 33.019531 263.363281 32.992188 262.363281 C 32.960938 261.359375 32.957031 260.355469 32.980469 259.34375 C 33.007812 258.332031 33.058594 257.316406 33.136719 256.296875 C 33.214844 255.28125 33.320312 254.257812 33.449219 253.234375 C 33.582031 252.210938 33.742188 251.1875 33.925781 250.164062 C 34.113281 249.136719 34.324219 248.113281 34.5625 247.085938 C 34.800781 246.0625 35.0625 245.039062 35.355469 244.015625 C 35.644531 242.992188 35.960938 241.972656 36.304688 240.953125 C 36.644531 239.9375 37.011719 238.921875 37.40625 237.914062 C 37.796875 236.902344 38.214844 235.898438 38.660156 234.898438 C 39.101562 233.898438 39.570312 232.90625 40.058594 231.917969 C 40.550781 230.929688 41.066406 229.949219 41.605469 228.976562 C 42.144531 228.003906 42.707031 227.039062 43.292969 226.085938 C 43.878906 225.128906 44.488281 224.183594 45.117188 223.246094 C 45.746094 222.308594 46.398438 221.386719 47.074219 220.46875 C 47.746094 219.554688 48.441406 218.652344 49.15625 217.761719 C 49.871094 216.871094 50.609375 215.996094 51.363281 215.128906 C 52.121094 214.265625 52.894531 213.414062 53.6875 212.578125 C 54.480469 211.742188 55.292969 210.921875 56.125 210.113281 C 56.953125 209.308594 57.800781 208.519531 58.664062 207.742188 C 59.53125 206.96875 60.410156 206.210938 61.308594 205.472656 C 62.203125 204.730469 63.117188 204.007812 64.042969 203.304688 C 64.96875 202.601562 65.910156 201.914062 66.863281 201.246094 Z M 66.863281 201.246094 "/></g></g></g></g><g clip-rule="nonzero" clip-path="url(#db777f30c4)"><g clip-rule="nonzero" clip-path="url(#4fb5361fad)"><g clip-rule="nonzero" clip-path="url(#736f991b69)"><g clip-rule="nonzero" clip-path="url(#3e69a288be)"><path style=" stroke:none;fill-rule:nonzero;fill:#000000;fill-opacity:1;" d="M 45.582031 80.328125 C 46.152344 79.570312 46.75 78.832031 47.363281 78.109375 C 47.980469 77.386719 48.621094 76.679688 49.28125 75.996094 C 49.941406 75.308594 50.621094 74.644531 51.324219 73.996094 C 52.027344 73.351562 52.75 72.722656 53.492188 72.117188 C 54.234375 71.511719 54.996094 70.925781 55.777344 70.363281 C 56.558594 69.796875 57.355469 69.253906 58.171875 68.734375 C 58.988281 68.210938 59.824219 67.710938 60.675781 67.234375 C 61.527344 66.757812 62.394531 66.304688 63.28125 65.871094 C 64.164062 65.441406 65.0625 65.03125 65.976562 64.648438 C 66.890625 64.261719 67.820312 63.902344 68.761719 63.566406 C 69.707031 63.226562 70.660156 62.914062 71.628906 62.625 C 72.597656 62.335938 73.578125 62.074219 74.570312 61.832031 C 75.5625 61.59375 76.566406 61.378906 77.578125 61.1875 C 78.589844 60.996094 79.613281 60.832031 80.644531 60.691406 C 81.675781 60.550781 82.71875 60.4375 83.765625 60.347656 C 84.8125 60.257812 85.867188 60.195312 86.929688 60.15625 C 87.992188 60.117188 89.058594 60.101562 90.132812 60.113281 C 91.203125 60.125 92.28125 60.160156 93.363281 60.222656 C 94.445312 60.285156 95.527344 60.375 96.613281 60.488281 C 97.703125 60.601562 98.792969 60.738281 99.882812 60.902344 C 100.972656 61.0625 102.0625 61.253906 103.15625 61.464844 C 104.246094 61.679688 105.335938 61.917969 106.425781 62.179688 C 107.515625 62.441406 108.601562 62.726562 109.6875 63.039062 C 110.769531 63.351562 111.851562 63.683594 112.929688 64.042969 C 114.007812 64.402344 115.078125 64.785156 116.148438 65.191406 C 117.214844 65.597656 118.277344 66.027344 119.332031 66.480469 C 120.386719 66.933594 121.4375 67.40625 122.476562 67.90625 C 123.515625 68.402344 124.550781 68.921875 125.570312 69.464844 C 126.59375 70.003906 127.609375 70.566406 128.613281 71.152344 C 129.613281 71.734375 130.605469 72.339844 131.589844 72.964844 C 132.570312 73.589844 133.539062 74.234375 134.496094 74.898438 C 135.449219 75.566406 136.394531 76.25 137.324219 76.949219 C 138.253906 77.652344 139.167969 78.375 140.066406 79.113281 C 140.96875 79.851562 141.851562 80.609375 142.722656 81.382812 C 143.589844 82.15625 144.441406 82.945312 145.277344 83.753906 C 146.113281 84.558594 146.929688 85.378906 147.730469 86.21875 C 148.53125 87.054688 149.3125 87.90625 150.074219 88.773438 C 150.835938 89.636719 151.578125 90.515625 152.304688 91.410156 C 153.027344 92.300781 153.730469 93.207031 154.410156 94.125 C 155.09375 95.039062 155.753906 95.96875 156.394531 96.910156 C 157.035156 97.847656 157.652344 98.796875 158.25 99.757812 C 158.84375 100.714844 159.417969 101.683594 159.964844 102.660156 C 160.515625 103.636719 161.042969 104.621094 161.546875 105.613281 C 162.050781 106.609375 162.527344 107.605469 162.984375 108.613281 C 163.4375 109.617188 163.867188 110.628906 164.273438 111.644531 C 164.679688 112.660156 165.0625 113.679688 165.417969 114.703125 C 165.773438 115.726562 166.101562 116.753906 166.40625 117.785156 C 166.710938 118.816406 166.988281 119.847656 167.242188 120.878906 C 167.496094 121.910156 167.722656 122.945312 167.921875 123.976562 C 168.121094 125.011719 168.296875 126.042969 168.445312 127.078125 C 168.589844 128.109375 168.710938 129.136719 168.808594 130.164062 C 168.902344 131.191406 168.96875 132.214844 169.007812 133.238281 C 169.050781 134.257812 169.0625 135.273438 169.050781 136.285156 C 169.039062 137.296875 169 138.300781 168.933594 139.300781 C 168.867188 140.300781 168.773438 141.292969 168.652344 142.28125 C 168.535156 143.265625 168.386719 144.242188 168.214844 145.210938 C 168.042969 146.183594 167.84375 147.140625 167.617188 148.09375 C 167.390625 149.042969 167.140625 149.984375 166.863281 150.910156 C 166.585938 151.839844 166.28125 152.757812 165.953125 153.664062 C 165.625 154.570312 165.269531 155.464844 164.890625 156.34375 C 164.511719 157.226562 164.105469 158.09375 163.675781 158.945312 C 163.246094 159.796875 162.792969 160.636719 162.316406 161.460938 C 161.835938 162.28125 161.335938 163.089844 160.808594 163.882812 C 160.28125 164.671875 159.734375 165.449219 159.164062 166.207031 C 158.589844 166.964844 157.996094 167.703125 157.378906 168.425781 C 156.761719 169.148438 156.125 169.851562 155.464844 170.539062 C 154.804688 171.222656 154.121094 171.890625 153.417969 172.535156 C 152.71875 173.183594 151.996094 173.808594 151.253906 174.417969 C 150.511719 175.023438 149.75 175.609375 148.96875 176.171875 C 148.1875 176.738281 147.386719 177.28125 146.570312 177.800781 C 145.753906 178.324219 144.917969 178.820312 144.066406 179.300781 C 143.214844 179.777344 142.347656 180.230469 141.464844 180.660156 C 140.582031 181.09375 139.679688 181.5 138.765625 181.886719 C 137.851562 182.269531 136.921875 182.632812 135.980469 182.96875 C 135.039062 183.304688 134.082031 183.617188 133.113281 183.90625 C 132.144531 184.195312 131.164062 184.460938 130.171875 184.699219 C 129.183594 184.941406 128.179688 185.15625 127.167969 185.347656 C 126.152344 185.535156 125.128906 185.703125 124.097656 185.839844 C 123.066406 185.980469 122.027344 186.097656 120.980469 186.1875 C 119.929688 186.277344 118.875 186.339844 117.816406 186.378906 C 116.753906 186.417969 115.6875 186.433594 114.613281 186.421875 C 113.539062 186.410156 112.464844 186.371094 111.382812 186.308594 C 110.300781 186.246094 109.214844 186.160156 108.128906 186.046875 C 107.042969 185.933594 105.953125 185.796875 104.863281 185.632812 C 103.773438 185.46875 102.679688 185.28125 101.589844 185.070312 C 100.5 184.855469 99.40625 184.617188 98.320312 184.355469 C 97.230469 184.09375 96.140625 183.804688 95.058594 183.496094 C 93.972656 183.183594 92.890625 182.847656 91.8125 182.488281 C 90.738281 182.128906 89.664062 181.746094 88.597656 181.339844 C 87.527344 180.933594 86.46875 180.507812 85.410156 180.054688 C 84.355469 179.601562 83.308594 179.125 82.265625 178.628906 C 81.226562 178.132812 80.195312 177.613281 79.171875 177.070312 C 78.148438 176.527344 77.136719 175.964844 76.132812 175.382812 C 75.128906 174.796875 74.136719 174.195312 73.15625 173.570312 C 72.175781 172.945312 71.207031 172.300781 70.25 171.632812 C 69.292969 170.96875 68.351562 170.285156 67.421875 169.582031 C 66.492188 168.878906 65.578125 168.160156 64.675781 167.421875 C 63.777344 166.683594 62.890625 165.925781 62.023438 165.152344 C 61.152344 164.378906 60.300781 163.589844 59.464844 162.78125 C 58.632812 161.976562 57.8125 161.152344 57.011719 160.316406 C 56.214844 159.480469 55.433594 158.628906 54.667969 157.761719 C 53.90625 156.894531 53.164062 156.015625 52.441406 155.125 C 51.71875 154.230469 51.015625 153.328125 50.332031 152.410156 C 49.648438 151.492188 48.988281 150.566406 48.347656 149.625 C 47.710938 148.6875 47.089844 147.738281 46.496094 146.777344 C 45.898438 145.820312 45.328125 144.851562 44.777344 143.875 C 44.226562 142.894531 43.699219 141.910156 43.199219 140.917969 C 42.695312 139.925781 42.214844 138.925781 41.761719 137.921875 C 41.304688 136.917969 40.875 135.90625 40.46875 134.890625 C 40.0625 133.875 39.683594 132.855469 39.328125 131.832031 C 38.972656 130.804688 38.640625 129.777344 38.335938 128.75 C 38.03125 127.71875 37.753906 126.6875 37.5 125.65625 C 37.25 124.621094 37.023438 123.589844 36.820312 122.554688 C 36.621094 121.523438 36.449219 120.488281 36.300781 119.457031 C 36.152344 118.425781 36.03125 117.398438 35.9375 116.367188 C 35.84375 115.339844 35.777344 114.316406 35.734375 113.296875 C 35.695312 112.277344 35.679688 111.261719 35.691406 110.25 C 35.707031 109.238281 35.746094 108.230469 35.8125 107.230469 C 35.878906 106.230469 35.972656 105.238281 36.089844 104.253906 C 36.210938 103.269531 36.355469 102.289062 36.53125 101.320312 C 36.703125 100.351562 36.902344 99.390625 37.125 98.441406 C 37.351562 97.492188 37.605469 96.550781 37.882812 95.621094 C 38.160156 94.691406 38.460938 93.773438 38.792969 92.871094 C 39.121094 91.964844 39.476562 91.070312 39.855469 90.191406 C 40.234375 89.308594 40.640625 88.441406 41.066406 87.589844 C 41.496094 86.738281 41.953125 85.898438 42.429688 85.074219 C 42.90625 84.25 43.410156 83.445312 43.933594 82.652344 C 44.460938 81.863281 45.007812 81.085938 45.582031 80.328125 Z M 45.582031 80.328125 "/></g></g></g></g><g clip-rule="nonzero" clip-path="url(#d2779b47bb)"><g clip-rule="nonzero" clip-path="url(#163a9db916)"><g clip-rule="nonzero" clip-path="url(#b764ab1747)"><g clip-rule="nonzero" clip-path="url(#d282bdd506)"><path style=" stroke:none;fill-rule:nonzero;fill:#000000;fill-opacity:1;" d="M 167.5625 67.746094 C 167.945312 66.644531 168.347656 65.550781 168.769531 64.464844 C 169.195312 63.382812 169.640625 62.304688 170.105469 61.242188 C 170.570312 60.175781 171.058594 59.121094 171.566406 58.078125 C 172.074219 57.03125 172.601562 56 173.148438 54.980469 C 173.699219 53.960938 174.265625 52.953125 174.851562 51.960938 C 175.4375 50.96875 176.042969 49.992188 176.667969 49.027344 C 177.292969 48.0625 177.933594 47.113281 178.59375 46.183594 C 179.253906 45.25 179.933594 44.335938 180.628906 43.4375 C 181.320312 42.539062 182.03125 41.65625 182.761719 40.792969 C 183.488281 39.929688 184.230469 39.085938 184.988281 38.261719 C 185.746094 37.4375 186.519531 36.632812 187.308594 35.847656 C 188.09375 35.0625 188.894531 34.296875 189.710938 33.554688 C 190.523438 32.8125 191.351562 32.089844 192.191406 31.390625 C 193.03125 30.691406 193.882812 30.015625 194.746094 29.359375 C 195.609375 28.707031 196.484375 28.074219 197.367188 27.46875 C 198.25 26.859375 199.144531 26.277344 200.046875 25.71875 C 200.953125 25.15625 201.863281 24.625 202.785156 24.113281 C 203.703125 23.605469 204.632812 23.121094 205.566406 22.664062 C 206.5 22.203125 207.441406 21.769531 208.390625 21.363281 C 209.335938 20.957031 210.289062 20.578125 211.246094 20.222656 C 212.203125 19.871094 213.164062 19.542969 214.128906 19.242188 C 215.09375 18.945312 216.0625 18.671875 217.035156 18.425781 C 218.003906 18.179688 218.976562 17.964844 219.949219 17.773438 C 220.925781 17.582031 221.898438 17.421875 222.871094 17.285156 C 223.847656 17.152344 224.820312 17.046875 225.792969 16.96875 C 226.765625 16.886719 227.738281 16.839844 228.707031 16.816406 C 229.675781 16.792969 230.640625 16.796875 231.605469 16.832031 C 232.566406 16.867188 233.527344 16.929688 234.480469 17.019531 C 235.433594 17.109375 236.382812 17.226562 237.328125 17.371094 C 238.269531 17.515625 239.207031 17.691406 240.136719 17.890625 C 241.066406 18.09375 241.992188 18.320312 242.90625 18.578125 C 243.820312 18.832031 244.726562 19.117188 245.625 19.429688 C 246.519531 19.738281 247.410156 20.074219 248.285156 20.441406 C 249.164062 20.804688 250.03125 21.195312 250.886719 21.613281 C 251.742188 22.03125 252.585938 22.472656 253.417969 22.941406 C 254.25 23.410156 255.066406 23.90625 255.875 24.425781 C 256.679688 24.945312 257.472656 25.488281 258.25 26.058594 C 259.027344 26.625 259.792969 27.21875 260.539062 27.835938 C 261.289062 28.453125 262.019531 29.09375 262.738281 29.757812 C 263.453125 30.421875 264.15625 31.105469 264.839844 31.816406 C 265.523438 32.523438 266.1875 33.253906 266.835938 34.003906 C 267.484375 34.757812 268.117188 35.53125 268.726562 36.324219 C 269.339844 37.117188 269.933594 37.929688 270.507812 38.761719 C 271.082031 39.59375 271.636719 40.445312 272.171875 41.316406 C 272.707031 42.1875 273.222656 43.074219 273.714844 43.980469 C 274.210938 44.886719 274.683594 45.808594 275.136719 46.746094 C 275.589844 47.683594 276.019531 48.640625 276.429688 49.609375 C 276.839844 50.578125 277.226562 51.5625 277.589844 52.5625 C 277.957031 53.5625 278.300781 54.570312 278.621094 55.597656 C 278.941406 56.621094 279.242188 57.65625 279.515625 58.707031 C 279.792969 59.753906 280.042969 60.8125 280.273438 61.882812 C 280.503906 62.953125 280.707031 64.03125 280.890625 65.121094 C 281.074219 66.210938 281.230469 67.304688 281.367188 68.410156 C 281.503906 69.515625 281.613281 70.625 281.703125 71.742188 C 281.789062 72.863281 281.851562 73.984375 281.894531 75.113281 C 281.933594 76.242188 281.949219 77.375 281.941406 78.511719 C 281.933594 79.648438 281.902344 80.785156 281.847656 81.929688 C 281.792969 83.070312 281.710938 84.210938 281.609375 85.355469 C 281.503906 86.5 281.378906 87.644531 281.226562 88.789062 C 281.078125 89.933594 280.902344 91.074219 280.703125 92.214844 C 280.507812 93.355469 280.285156 94.496094 280.042969 95.628906 C 279.796875 96.765625 279.53125 97.894531 279.238281 99.023438 C 278.949219 100.148438 278.636719 101.269531 278.300781 102.386719 C 277.964844 103.5 277.605469 104.609375 277.226562 105.710938 C 276.847656 106.8125 276.445312 107.90625 276.019531 108.988281 C 275.597656 110.074219 275.152344 111.148438 274.6875 112.214844 C 274.21875 113.28125 273.734375 114.335938 273.226562 115.378906 C 272.71875 116.421875 272.1875 117.457031 271.640625 118.476562 C 271.09375 119.496094 270.527344 120.5 269.9375 121.492188 C 269.351562 122.488281 268.746094 123.464844 268.121094 124.429688 C 267.5 125.394531 266.855469 126.339844 266.195312 127.273438 C 265.535156 128.207031 264.859375 129.121094 264.164062 130.019531 C 263.46875 130.917969 262.757812 131.800781 262.03125 132.664062 C 261.304688 133.523438 260.5625 134.367188 259.800781 135.195312 C 259.042969 136.019531 258.269531 136.824219 257.484375 137.609375 C 256.695312 138.394531 255.894531 139.15625 255.082031 139.902344 C 254.265625 140.644531 253.4375 141.367188 252.597656 142.066406 C 251.757812 142.765625 250.90625 143.441406 250.042969 144.097656 C 249.179688 144.75 248.308594 145.382812 247.421875 145.988281 C 246.539062 146.597656 245.644531 147.179688 244.742188 147.738281 C 243.839844 148.296875 242.925781 148.832031 242.007812 149.34375 C 241.085938 149.851562 240.160156 150.335938 239.222656 150.792969 C 238.289062 151.253906 237.347656 151.683594 236.402344 152.089844 C 235.453125 152.5 234.5 152.878906 233.542969 153.230469 C 232.585938 153.585938 231.625 153.914062 230.660156 154.210938 C 229.695312 154.511719 228.726562 154.785156 227.757812 155.03125 C 226.785156 155.273438 225.816406 155.492188 224.839844 155.683594 C 223.867188 155.871094 222.894531 156.035156 221.917969 156.167969 C 220.945312 156.304688 219.96875 156.410156 218.996094 156.488281 C 218.023438 156.566406 217.054688 156.617188 216.085938 156.640625 C 215.113281 156.664062 214.148438 156.65625 213.1875 156.625 C 212.222656 156.589844 211.265625 156.527344 210.3125 156.4375 C 209.355469 156.347656 208.40625 156.230469 207.464844 156.085938 C 206.519531 155.9375 205.582031 155.765625 204.652344 155.566406 C 203.722656 155.363281 202.800781 155.132812 201.886719 154.878906 C 200.972656 154.621094 200.066406 154.339844 199.167969 154.027344 C 198.269531 153.71875 197.382812 153.378906 196.503906 153.015625 C 195.628906 152.652344 194.761719 152.261719 193.90625 151.84375 C 193.050781 151.425781 192.207031 150.984375 191.375 150.515625 C 190.542969 150.046875 189.722656 149.550781 188.917969 149.03125 C 188.109375 148.511719 187.320312 147.96875 186.539062 147.398438 C 185.761719 146.828125 185 146.238281 184.25 145.621094 C 183.503906 145.003906 182.769531 144.363281 182.054688 143.699219 C 181.335938 143.035156 180.636719 142.347656 179.953125 141.640625 C 179.269531 140.933594 178.601562 140.203125 177.953125 139.449219 C 177.304688 138.699219 176.675781 137.925781 176.0625 137.132812 C 175.449219 136.339844 174.859375 135.527344 174.285156 134.695312 C 173.707031 133.863281 173.15625 133.011719 172.621094 132.140625 C 172.085938 131.269531 171.570312 130.382812 171.074219 129.476562 C 170.582031 128.570312 170.109375 127.648438 169.65625 126.710938 C 169.203125 125.769531 168.773438 124.816406 168.363281 123.847656 C 167.953125 122.875 167.566406 121.890625 167.199219 120.894531 C 166.832031 119.894531 166.488281 118.882812 166.167969 117.859375 C 165.847656 116.835938 165.550781 115.796875 165.273438 114.75 C 165 113.699219 164.746094 112.640625 164.519531 111.570312 C 164.289062 110.503906 164.082031 109.421875 163.898438 108.335938 C 163.71875 107.246094 163.558594 106.148438 163.421875 105.046875 C 163.289062 103.941406 163.175781 102.828125 163.089844 101.710938 C 163 100.59375 162.9375 99.472656 162.898438 98.34375 C 162.855469 97.214844 162.839844 96.082031 162.847656 94.945312 C 162.855469 93.808594 162.886719 92.667969 162.945312 91.527344 C 163 90.386719 163.078125 89.242188 163.183594 88.097656 C 163.285156 86.957031 163.414062 85.8125 163.5625 84.667969 C 163.714844 83.523438 163.886719 82.382812 164.085938 81.238281 C 164.285156 80.097656 164.503906 78.960938 164.75 77.828125 C 164.992188 76.691406 165.261719 75.558594 165.550781 74.433594 C 165.84375 73.308594 166.15625 72.1875 166.492188 71.070312 C 166.828125 69.957031 167.183594 68.847656 167.5625 67.746094 Z M 167.5625 67.746094 "/></g></g></g></g><g clip-rule="nonzero" clip-path="url(#e5d815bf9c)"><g clip-rule="nonzero" clip-path="url(#88710aa351)"><g clip-rule="nonzero" clip-path="url(#6943df00b3)"><g clip-rule="nonzero" clip-path="url(#8d341ab541)"><path style=" stroke:none;fill-rule:nonzero;fill:#000000;fill-opacity:1;" d="M 223.160156 188.367188 C 223.175781 187.417969 223.222656 186.46875 223.296875 185.519531 C 223.371094 184.574219 223.472656 183.628906 223.605469 182.683594 C 223.738281 181.742188 223.898438 180.800781 224.085938 179.863281 C 224.273438 178.929688 224.488281 177.996094 224.734375 177.070312 C 224.976562 176.140625 225.25 175.21875 225.550781 174.304688 C 225.847656 173.386719 226.175781 172.476562 226.53125 171.574219 C 226.886719 170.671875 227.265625 169.777344 227.675781 168.890625 C 228.085938 168.003906 228.519531 167.125 228.980469 166.253906 C 229.441406 165.386719 229.929688 164.527344 230.445312 163.675781 C 230.957031 162.828125 231.496094 161.988281 232.058594 161.164062 C 232.625 160.335938 233.214844 159.519531 233.828125 158.714844 C 234.441406 157.914062 235.078125 157.121094 235.738281 156.34375 C 236.402344 155.566406 237.085938 154.800781 237.792969 154.050781 C 238.5 153.300781 239.230469 152.566406 239.980469 151.847656 C 240.734375 151.125 241.507812 150.421875 242.300781 149.734375 C 243.097656 149.042969 243.914062 148.371094 244.75 147.714844 C 245.582031 147.058594 246.4375 146.417969 247.3125 145.796875 C 248.1875 145.175781 249.082031 144.570312 249.992188 143.988281 C 250.902344 143.402344 251.832031 142.832031 252.777344 142.285156 C 253.722656 141.738281 254.683594 141.207031 255.660156 140.699219 C 256.640625 140.1875 257.632812 139.699219 258.640625 139.230469 C 259.648438 138.761719 260.667969 138.3125 261.703125 137.882812 C 262.738281 137.453125 263.785156 137.046875 264.847656 136.660156 C 265.90625 136.273438 266.976562 135.910156 268.058594 135.566406 C 269.140625 135.222656 270.234375 134.902344 271.335938 134.601562 C 272.4375 134.304688 273.550781 134.027344 274.667969 133.773438 C 275.789062 133.515625 276.914062 133.285156 278.046875 133.074219 C 279.183594 132.867188 280.320312 132.679688 281.46875 132.515625 C 282.613281 132.351562 283.761719 132.210938 284.917969 132.09375 C 286.070312 131.976562 287.226562 131.882812 288.386719 131.808594 C 289.550781 131.738281 290.710938 131.691406 291.875 131.667969 C 293.039062 131.640625 294.203125 131.640625 295.367188 131.660156 C 296.53125 131.683594 297.695312 131.730469 298.855469 131.796875 C 300.019531 131.867188 301.179688 131.957031 302.335938 132.074219 C 303.492188 132.1875 304.644531 132.328125 305.796875 132.488281 C 306.945312 132.648438 308.089844 132.832031 309.226562 133.039062 C 310.367188 133.246094 311.496094 133.476562 312.621094 133.726562 C 313.746094 133.980469 314.863281 134.253906 315.972656 134.550781 C 317.082031 134.847656 318.183594 135.167969 319.273438 135.507812 C 320.363281 135.847656 321.445312 136.210938 322.511719 136.59375 C 323.582031 136.976562 324.640625 137.382812 325.683594 137.808594 C 326.730469 138.234375 327.761719 138.683594 328.78125 139.148438 C 329.796875 139.617188 330.800781 140.105469 331.792969 140.609375 C 332.78125 141.117188 333.757812 141.644531 334.714844 142.191406 C 335.671875 142.738281 336.613281 143.300781 337.539062 143.886719 C 338.464844 144.46875 339.371094 145.070312 340.261719 145.691406 C 341.148438 146.308594 342.019531 146.945312 342.871094 147.601562 C 343.722656 148.253906 344.554688 148.925781 345.363281 149.613281 C 346.175781 150.300781 346.964844 151.003906 347.734375 151.722656 C 348.503906 152.441406 349.25 153.175781 349.976562 153.921875 C 350.699219 154.671875 351.402344 155.433594 352.082031 156.210938 C 352.761719 156.984375 353.417969 157.773438 354.050781 158.578125 C 354.683594 159.378906 355.292969 160.191406 355.875 161.019531 C 356.457031 161.84375 357.019531 162.683594 357.550781 163.53125 C 358.085938 164.378906 358.59375 165.238281 359.074219 166.105469 C 359.558594 166.972656 360.011719 167.851562 360.441406 168.738281 C 360.871094 169.621094 361.273438 170.515625 361.648438 171.417969 C 362.027344 172.320312 362.375 173.230469 362.695312 174.144531 C 363.015625 175.058594 363.3125 175.980469 363.578125 176.910156 C 363.84375 177.835938 364.082031 178.765625 364.292969 179.703125 C 364.5 180.640625 364.683594 181.578125 364.835938 182.519531 C 364.992188 183.464844 365.117188 184.410156 365.210938 185.355469 C 365.308594 186.304688 365.378906 187.253906 365.417969 188.203125 C 365.457031 189.152344 365.46875 190.101562 365.453125 191.054688 C 365.433594 192.003906 365.386719 192.953125 365.3125 193.898438 C 365.238281 194.847656 365.136719 195.792969 365.003906 196.738281 C 364.875 197.679688 364.714844 198.621094 364.527344 199.554688 C 364.335938 200.492188 364.121094 201.425781 363.878906 202.351562 C 363.632812 203.28125 363.359375 204.203125 363.0625 205.117188 C 362.761719 206.035156 362.433594 206.941406 362.078125 207.847656 C 361.726562 208.75 361.34375 209.644531 360.933594 210.53125 C 360.527344 211.417969 360.089844 212.296875 359.628906 213.164062 C 359.167969 214.035156 358.679688 214.894531 358.167969 215.742188 C 357.652344 216.59375 357.113281 217.429688 356.550781 218.257812 C 355.984375 219.085938 355.398438 219.902344 354.785156 220.703125 C 354.167969 221.507812 353.53125 222.300781 352.871094 223.078125 C 352.210938 223.855469 351.523438 224.617188 350.816406 225.367188 C 350.109375 226.117188 349.378906 226.855469 348.628906 227.574219 C 347.875 228.292969 347.101562 229 346.308594 229.6875 C 345.511719 230.378906 344.699219 231.050781 343.863281 231.707031 C 343.027344 232.363281 342.171875 233 341.296875 233.625 C 340.421875 234.246094 339.53125 234.847656 338.617188 235.433594 C 337.707031 236.019531 336.78125 236.585938 335.832031 237.136719 C 334.886719 237.683594 333.925781 238.210938 332.949219 238.722656 C 331.972656 239.230469 330.976562 239.722656 329.972656 240.191406 C 328.964844 240.660156 327.941406 241.109375 326.90625 241.539062 C 325.871094 241.964844 324.824219 242.375 323.765625 242.757812 C 322.703125 243.144531 321.632812 243.511719 320.550781 243.855469 C 319.46875 244.199219 318.375 244.519531 317.273438 244.816406 C 316.171875 245.117188 315.0625 245.394531 313.941406 245.648438 C 312.824219 245.902344 311.695312 246.136719 310.5625 246.34375 C 309.429688 246.554688 308.289062 246.742188 307.144531 246.90625 C 306 247.070312 304.847656 247.210938 303.695312 247.328125 C 302.539062 247.445312 301.382812 247.539062 300.222656 247.609375 C 299.0625 247.683594 297.898438 247.730469 296.734375 247.753906 C 295.570312 247.78125 294.40625 247.78125 293.242188 247.757812 C 292.078125 247.738281 290.914062 247.691406 289.753906 247.625 C 288.589844 247.554688 287.433594 247.460938 286.273438 247.347656 C 285.117188 247.234375 283.964844 247.09375 282.816406 246.933594 C 281.667969 246.773438 280.523438 246.589844 279.382812 246.382812 C 278.246094 246.175781 277.113281 245.945312 275.988281 245.691406 C 274.863281 245.441406 273.746094 245.167969 272.636719 244.871094 C 271.527344 244.574219 270.425781 244.253906 269.335938 243.914062 C 268.246094 243.574219 267.167969 243.210938 266.097656 242.828125 C 265.027344 242.441406 263.972656 242.039062 262.925781 241.613281 C 261.882812 241.183594 260.847656 240.738281 259.832031 240.273438 C 258.8125 239.804688 257.808594 239.316406 256.816406 238.808594 C 255.828125 238.300781 254.855469 237.777344 253.894531 237.230469 C 252.9375 236.683594 251.996094 236.117188 251.070312 235.535156 C 250.144531 234.953125 249.238281 234.351562 248.351562 233.730469 C 247.460938 233.109375 246.589844 232.472656 245.738281 231.820312 C 244.886719 231.164062 244.058594 230.496094 243.246094 229.808594 C 242.433594 229.121094 241.644531 228.417969 240.875 227.699219 C 240.105469 226.980469 239.359375 226.246094 238.636719 225.5 C 237.910156 224.75 237.207031 223.988281 236.527344 223.210938 C 235.847656 222.433594 235.191406 221.644531 234.558594 220.84375 C 233.925781 220.042969 233.320312 219.226562 232.734375 218.402344 C 232.152344 217.574219 231.59375 216.738281 231.058594 215.890625 C 230.527344 215.042969 230.019531 214.183594 229.535156 213.316406 C 229.054688 212.449219 228.597656 211.570312 228.167969 210.683594 C 227.738281 209.796875 227.335938 208.902344 226.960938 208.003906 C 226.585938 207.101562 226.234375 206.191406 225.914062 205.277344 C 225.59375 204.359375 225.300781 203.4375 225.03125 202.511719 C 224.765625 201.585938 224.527344 200.652344 224.320312 199.71875 C 224.109375 198.78125 223.925781 197.84375 223.773438 196.898438 C 223.621094 195.957031 223.496094 195.011719 223.398438 194.0625 C 223.300781 193.117188 223.234375 192.167969 223.191406 191.21875 C 223.152344 190.269531 223.140625 189.316406 223.160156 188.367188 Z M 223.160156 188.367188 "/></g></g></g></g><g clip-rule="nonzero" clip-path="url(#177e6c1df6)"><g clip-rule="nonzero" clip-path="url(#3fa8e022c8)"><g clip-rule="nonzero" clip-path="url(#474f988fcd)"><g clip-rule="nonzero" clip-path="url(#41c1805169)"><path style=" stroke:none;fill-rule:nonzero;fill:#000000;fill-opacity:1;" d="M 268.777344 169.464844 C 269.164062 170.730469 269.515625 172.007812 269.839844 173.292969 C 270.160156 174.578125 270.449219 175.875 270.703125 177.175781 C 270.957031 178.476562 271.179688 179.78125 271.371094 181.09375 C 271.558594 182.40625 271.714844 183.726562 271.835938 185.046875 C 271.960938 186.367188 272.046875 187.691406 272.105469 189.019531 C 272.160156 190.347656 272.179688 191.675781 272.167969 193.003906 C 272.15625 194.332031 272.113281 195.664062 272.03125 196.992188 C 271.953125 198.320312 271.839844 199.644531 271.695312 200.96875 C 271.550781 202.292969 271.371094 203.613281 271.15625 204.933594 C 270.945312 206.25 270.699219 207.5625 270.421875 208.867188 C 270.140625 210.175781 269.832031 211.472656 269.488281 212.765625 C 269.144531 214.0625 268.765625 215.34375 268.359375 216.621094 C 267.949219 217.898438 267.507812 219.164062 267.035156 220.421875 C 266.5625 221.675781 266.058594 222.921875 265.527344 224.15625 C 264.992188 225.390625 264.425781 226.609375 263.828125 227.820312 C 263.234375 229.027344 262.609375 230.222656 261.953125 231.398438 C 261.296875 232.578125 260.613281 233.742188 259.898438 234.890625 C 259.183594 236.039062 258.441406 237.167969 257.671875 238.28125 C 256.902344 239.394531 256.101562 240.492188 255.277344 241.566406 C 254.453125 242.644531 253.601562 243.699219 252.726562 244.738281 C 251.847656 245.773438 250.945312 246.789062 250.015625 247.785156 C 249.089844 248.777344 248.136719 249.75 247.160156 250.703125 C 246.183594 251.652344 245.183594 252.578125 244.164062 253.484375 C 243.140625 254.386719 242.097656 255.265625 241.03125 256.121094 C 239.964844 256.976562 238.878906 257.804688 237.773438 258.609375 C 236.664062 259.410156 235.539062 260.1875 234.394531 260.9375 C 233.25 261.691406 232.089844 262.414062 230.90625 263.109375 C 229.726562 263.804688 228.53125 264.472656 227.320312 265.113281 C 226.105469 265.75 224.878906 266.363281 223.636719 266.945312 C 222.394531 267.523438 221.136719 268.078125 219.867188 268.597656 C 218.597656 269.121094 217.316406 269.613281 216.023438 270.074219 C 214.734375 270.535156 213.429688 270.96875 212.117188 271.367188 C 210.804688 271.765625 209.480469 272.136719 208.148438 272.472656 C 206.820312 272.808594 205.480469 273.117188 204.136719 273.390625 C 202.792969 273.664062 201.441406 273.902344 200.085938 274.113281 C 198.730469 274.324219 197.371094 274.5 196.007812 274.644531 C 194.644531 274.789062 193.277344 274.902344 191.910156 274.980469 C 190.542969 275.0625 189.175781 275.109375 187.804688 275.125 C 186.4375 275.136719 185.070312 275.121094 183.703125 275.070312 C 182.335938 275.019531 180.972656 274.9375 179.609375 274.820312 C 178.25 274.703125 176.894531 274.554688 175.539062 274.375 C 174.1875 274.195312 172.84375 273.980469 171.503906 273.738281 C 170.160156 273.492188 168.828125 273.214844 167.503906 272.90625 C 166.179688 272.597656 164.863281 272.257812 163.558594 271.886719 C 162.25 271.511719 160.957031 271.109375 159.671875 270.675781 C 158.386719 270.242188 157.113281 269.777344 155.851562 269.28125 C 154.59375 268.785156 153.347656 268.261719 152.113281 267.707031 C 150.882812 267.152344 149.664062 266.566406 148.464844 265.953125 C 147.261719 265.339844 146.078125 264.695312 144.910156 264.027344 C 143.742188 263.355469 142.589844 262.65625 141.460938 261.929688 C 140.328125 261.203125 139.214844 260.449219 138.125 259.667969 C 137.03125 258.890625 135.960938 258.082031 134.910156 257.25 C 133.859375 256.417969 132.828125 255.5625 131.824219 254.679688 C 130.816406 253.796875 129.835938 252.894531 128.875 251.964844 C 127.914062 251.035156 126.980469 250.082031 126.070312 249.105469 C 125.160156 248.128906 124.273438 247.132812 123.414062 246.117188 C 122.554688 245.097656 121.722656 244.058594 120.917969 243 C 120.113281 241.941406 119.332031 240.863281 118.582031 239.765625 C 117.832031 238.667969 117.109375 237.550781 116.417969 236.417969 C 115.722656 235.289062 115.058594 234.136719 114.425781 232.972656 C 113.789062 231.808594 113.183594 230.625 112.609375 229.429688 C 112.035156 228.234375 111.492188 227.027344 110.980469 225.804688 C 110.464844 224.582031 109.984375 223.347656 109.535156 222.101562 C 109.085938 220.851562 108.667969 219.597656 108.28125 218.328125 C 107.894531 217.058594 107.539062 215.78125 107.21875 214.496094 C 106.898438 213.210938 106.609375 211.917969 106.355469 210.617188 C 106.097656 209.316406 105.878906 208.007812 105.6875 206.695312 C 105.5 205.382812 105.34375 204.066406 105.222656 202.746094 C 105.097656 201.421875 105.007812 200.097656 104.953125 198.773438 C 104.898438 197.445312 104.878906 196.117188 104.890625 194.785156 C 104.902344 193.457031 104.945312 192.128906 105.023438 190.800781 C 105.105469 189.472656 105.214844 188.144531 105.363281 186.820312 C 105.507812 185.496094 105.6875 184.175781 105.902344 182.859375 C 106.113281 181.542969 106.359375 180.230469 106.636719 178.921875 C 106.914062 177.617188 107.226562 176.316406 107.570312 175.023438 C 107.914062 173.730469 108.292969 172.445312 108.699219 171.167969 C 109.109375 169.894531 109.550781 168.625 110.023438 167.371094 C 110.496094 166.113281 110.996094 164.867188 111.53125 163.632812 C 112.066406 162.402344 112.632812 161.179688 113.230469 159.972656 C 113.824219 158.765625 114.449219 157.570312 115.105469 156.390625 C 115.761719 155.210938 116.445312 154.046875 117.160156 152.902344 C 117.875 151.753906 118.617188 150.621094 119.386719 149.507812 C 120.15625 148.394531 120.953125 147.300781 121.78125 146.222656 C 122.605469 145.148438 123.457031 144.089844 124.332031 143.054688 C 125.210938 142.015625 126.113281 141 127.042969 140.007812 C 127.96875 139.011719 128.921875 138.039062 129.898438 137.089844 C 130.875 136.136719 131.875 135.210938 132.894531 134.308594 C 133.917969 133.40625 134.960938 132.527344 136.027344 131.671875 C 137.09375 130.816406 138.179688 129.988281 139.285156 129.183594 C 140.390625 128.378906 141.519531 127.601562 142.664062 126.851562 C 143.808594 126.101562 144.96875 125.378906 146.148438 124.683594 C 147.332031 123.984375 148.527344 123.320312 149.738281 122.679688 C 150.953125 122.039062 152.179688 121.429688 153.421875 120.847656 C 154.664062 120.265625 155.921875 119.714844 157.191406 119.191406 C 158.460938 118.667969 159.738281 118.175781 161.03125 117.714844 C 162.324219 117.253906 163.628906 116.824219 164.941406 116.421875 C 166.253906 116.023438 167.578125 115.65625 168.90625 115.316406 C 170.238281 114.980469 171.578125 114.675781 172.921875 114.402344 C 174.265625 114.128906 175.617188 113.886719 176.972656 113.675781 C 178.328125 113.46875 179.6875 113.289062 181.050781 113.144531 C 182.414062 113 183.78125 112.886719 185.148438 112.808594 C 186.515625 112.730469 187.882812 112.683594 189.253906 112.667969 C 190.621094 112.652344 191.988281 112.671875 193.355469 112.722656 C 194.722656 112.773438 196.085938 112.855469 197.449219 112.972656 C 198.808594 113.085938 200.164062 113.234375 201.515625 113.414062 C 202.871094 113.597656 204.214844 113.808594 205.554688 114.054688 C 206.894531 114.300781 208.230469 114.574219 209.554688 114.886719 C 210.878906 115.195312 212.195312 115.535156 213.5 115.90625 C 214.808594 116.277344 216.101562 116.679688 217.386719 117.113281 C 218.671875 117.550781 219.945312 118.015625 221.207031 118.507812 C 222.464844 119.003906 223.710938 119.53125 224.945312 120.085938 C 226.175781 120.640625 227.394531 121.222656 228.59375 121.839844 C 229.796875 122.453125 230.980469 123.09375 232.148438 123.765625 C 233.316406 124.4375 234.46875 125.136719 235.597656 125.863281 C 236.730469 126.585938 237.84375 127.339844 238.933594 128.121094 C 240.027344 128.902344 241.097656 129.707031 242.148438 130.539062 C 243.199219 131.371094 244.226562 132.230469 245.234375 133.109375 C 246.242188 133.992188 247.222656 134.898438 248.183594 135.828125 C 249.144531 136.757812 250.078125 137.710938 250.988281 138.683594 C 251.898438 139.660156 252.785156 140.65625 253.644531 141.675781 C 254.503906 142.695312 255.335938 143.734375 256.140625 144.792969 C 256.945312 145.851562 257.726562 146.929688 258.476562 148.027344 C 259.226562 149.125 259.949219 150.238281 260.640625 151.371094 C 261.335938 152.503906 262 153.652344 262.632812 154.820312 C 263.269531 155.984375 263.875 157.164062 264.449219 158.359375 C 265.023438 159.554688 265.566406 160.765625 266.078125 161.988281 C 266.59375 163.210938 267.074219 164.445312 267.523438 165.691406 C 267.972656 166.9375 268.390625 168.195312 268.777344 169.464844 Z M 268.777344 169.464844 "/></g></g></g></g><g style="fill:#ffffff;fill-opacity:0.502;"><g transform="translate(131.736576, 234.793727)"><path style="stroke:none" d="M 4.6875 -0.890625 L -8.265625 -69.25 L 42.59375 -78.890625 L 45.25 -64.84375 L 11.59375 -58.46875 L 14.4375 -43.453125 L 41.890625 -48.65625 L 44.5625 -34.59375 L 17.109375 -29.390625 L 21.890625 -4.15625 Z M 4.6875 -0.890625 "/></g></g><g style="fill:#ffffff;fill-opacity:0.502;"><g transform="translate(177.316181, 223.40423)"><path style="stroke:none" d="M 4.703125 0.796875 L 16.34375 -67.796875 L 48.671875 -62.3125 C 56.285156 -61.019531 61.972656 -58.296875 65.734375 -54.140625 C 69.503906 -49.984375 70.84375 -44.671875 69.75 -38.203125 C 68.976562 -33.660156 67.101562 -30.179688 64.125 -27.765625 C 61.144531 -25.347656 57.429688 -24.019531 52.984375 -23.78125 L 52.953125 -23.578125 C 55.742188 -22.578125 57.832031 -21.117188 59.21875 -19.203125 C 60.601562 -17.296875 61.535156 -15.148438 62.015625 -12.765625 C 62.503906 -10.378906 62.703125 -7.941406 62.609375 -5.453125 C 62.523438 -2.972656 62.359375 -0.632812 62.109375 1.5625 C 61.867188 3.757812 61.742188 5.578125 61.734375 7.015625 C 61.722656 8.460938 62.015625 9.335938 62.609375 9.640625 L 62.453125 10.59375 L 44.515625 7.546875 C 44.023438 6.941406 43.828125 5.972656 43.921875 4.640625 C 44.015625 3.304688 44.195312 1.726562 44.46875 -0.09375 C 44.75 -1.925781 44.957031 -3.816406 45.09375 -5.765625 C 45.226562 -7.710938 45.097656 -9.554688 44.703125 -11.296875 C 44.304688 -13.046875 43.488281 -14.550781 42.25 -15.8125 C 41.019531 -17.082031 39.191406 -17.925781 36.765625 -18.34375 L 26.015625 -20.15625 L 21.96875 3.734375 Z M 28.421875 -34.25 L 40.125 -32.265625 C 43.570312 -31.679688 46.300781 -31.894531 48.3125 -32.90625 C 50.332031 -33.925781 51.585938 -35.875 52.078125 -38.75 C 52.566406 -41.625 52.023438 -43.867188 50.453125 -45.484375 C 48.878906 -47.097656 46.367188 -48.195312 42.921875 -48.78125 L 31.21875 -50.765625 Z M 28.421875 -34.25 "/></g></g><g style="fill:#ffffff;fill-opacity:0.302;"><g transform="translate(130.683982, 243.366402)"><path style="stroke:none" d="M 4.6875 -0.890625 L -8.265625 -69.25 L 42.59375 -78.890625 L 45.25 -64.84375 L 11.59375 -58.46875 L 14.4375 -43.453125 L 41.890625 -48.65625 L 44.5625 -34.59375 L 17.109375 -29.390625 L 21.890625 -4.15625 Z M 4.6875 -0.890625 "/></g></g><g style="fill:#ffffff;fill-opacity:0.302;"><g transform="translate(176.263589, 231.976905)"><path style="stroke:none" d="M 4.703125 0.796875 L 16.34375 -67.796875 L 48.671875 -62.3125 C 56.285156 -61.019531 61.972656 -58.296875 65.734375 -54.140625 C 69.503906 -49.984375 70.84375 -44.671875 69.75 -38.203125 C 68.976562 -33.660156 67.101562 -30.179688 64.125 -27.765625 C 61.144531 -25.347656 57.429688 -24.019531 52.984375 -23.78125 L 52.953125 -23.578125 C 55.742188 -22.578125 57.832031 -21.117188 59.21875 -19.203125 C 60.601562 -17.296875 61.535156 -15.148438 62.015625 -12.765625 C 62.503906 -10.378906 62.703125 -7.941406 62.609375 -5.453125 C 62.523438 -2.972656 62.359375 -0.632812 62.109375 1.5625 C 61.867188 3.757812 61.742188 5.578125 61.734375 7.015625 C 61.722656 8.460938 62.015625 9.335938 62.609375 9.640625 L 62.453125 10.59375 L 44.515625 7.546875 C 44.023438 6.941406 43.828125 5.972656 43.921875 4.640625 C 44.015625 3.304688 44.195312 1.726562 44.46875 -0.09375 C 44.75 -1.925781 44.957031 -3.816406 45.09375 -5.765625 C 45.226562 -7.710938 45.097656 -9.554688 44.703125 -11.296875 C 44.304688 -13.046875 43.488281 -14.550781 42.25 -15.8125 C 41.019531 -17.082031 39.191406 -17.925781 36.765625 -18.34375 L 26.015625 -20.15625 L 21.96875 3.734375 Z M 28.421875 -34.25 L 40.125 -32.265625 C 43.570312 -31.679688 46.300781 -31.894531 48.3125 -32.90625 C 50.332031 -33.925781 51.585938 -35.875 52.078125 -38.75 C 52.566406 -41.625 52.023438 -43.867188 50.453125 -45.484375 C 48.878906 -47.097656 46.367188 -48.195312 42.921875 -48.78125 L 31.21875 -50.765625 Z M 28.421875 -34.25 "/></g></g><g style="fill:#ffffff;fill-opacity:1;"><g transform="translate(132.789175, 226.221036)"><path style="stroke:none" d="M 4.6875 -0.890625 L -8.265625 -69.25 L 42.59375 -78.890625 L 45.25 -64.84375 L 11.59375 -58.46875 L 14.4375 -43.453125 L 41.890625 -48.65625 L 44.5625 -34.59375 L 17.109375 -29.390625 L 21.890625 -4.15625 Z M 4.6875 -0.890625 "/></g></g><g style="fill:#ffffff;fill-opacity:1;"><g transform="translate(178.368775, 214.831541)"><path style="stroke:none" d="M 4.703125 0.796875 L 16.34375 -67.796875 L 48.671875 -62.3125 C 56.285156 -61.019531 61.972656 -58.296875 65.734375 -54.140625 C 69.503906 -49.984375 70.84375 -44.671875 69.75 -38.203125 C 68.976562 -33.660156 67.101562 -30.179688 64.125 -27.765625 C 61.144531 -25.347656 57.429688 -24.019531 52.984375 -23.78125 L 52.953125 -23.578125 C 55.742188 -22.578125 57.832031 -21.117188 59.21875 -19.203125 C 60.601562 -17.296875 61.535156 -15.148438 62.015625 -12.765625 C 62.503906 -10.378906 62.703125 -7.941406 62.609375 -5.453125 C 62.523438 -2.972656 62.359375 -0.632812 62.109375 1.5625 C 61.867188 3.757812 61.742188 5.578125 61.734375 7.015625 C 61.722656 8.460938 62.015625 9.335938 62.609375 9.640625 L 62.453125 10.59375 L 44.515625 7.546875 C 44.023438 6.941406 43.828125 5.972656 43.921875 4.640625 C 44.015625 3.304688 44.195312 1.726562 44.46875 -0.09375 C 44.75 -1.925781 44.957031 -3.816406 45.09375 -5.765625 C 45.226562 -7.710938 45.097656 -9.554688 44.703125 -11.296875 C 44.304688 -13.046875 43.488281 -14.550781 42.25 -15.8125 C 41.019531 -17.082031 39.191406 -17.925781 36.765625 -18.34375 L 26.015625 -20.15625 L 21.96875 3.734375 Z M 28.421875 -34.25 L 40.125 -32.265625 C 43.570312 -31.679688 46.300781 -31.894531 48.3125 -32.90625 C 50.332031 -33.925781 51.585938 -35.875 52.078125 -38.75 C 52.566406 -41.625 52.023438 -43.867188 50.453125 -45.484375 C 48.878906 -47.097656 46.367188 -48.195312 42.921875 -48.78125 L 31.21875 -50.765625 Z M 28.421875 -34.25 "/></g></g></g></svg>